<?xml version="1.0" encoding="utf-8" standalone="no"?>
<!DOCTYPE svg PUBLIC "-//W3C//DTD SVG 1.1//EN"
  "http://www.w3.org/Graphics/SVG/1.1/DTD/svg11.dtd">
<!-- Created with matplotlib (http://matplotlib.org/) -->
<svg height="345pt" version="1.1" viewBox="0 0 614 345" width="614pt" xmlns="http://www.w3.org/2000/svg" xmlns:xlink="http://www.w3.org/1999/xlink">
 <defs>
  <style type="text/css">
*{stroke-linecap:butt;stroke-linejoin:round;}
  </style>
 </defs>
 <g id="figure_1">
  <g id="patch_1">
   <path d="M 0 345.6 
L 614.4 345.6 
L 614.4 0 
L 0 0 
z
" style="fill:#ffffff;"/>
  </g>
  <g id="axes_1">
   <g id="patch_2">
    <path d="M 44.57 303.64 
L 601.08 303.64 
L 601.08 13.32 
L 44.57 13.32 
z
" style="fill:#ffffff;"/>
   </g>
   <g id="PolyCollection_1">
    <defs>
     <path d="M 69.865909 -291.022485 
L 69.865909 -254.311925 
L 73.261333 -255.062028 
L 76.656757 -257.509554 
L 80.052181 -258.075558 
L 83.447605 -258.345859 
L 86.843029 -271.448071 
L 90.238453 -273.48082 
L 93.633877 -275.800363 
L 97.029301 -274.613545 
L 100.424725 -275.49475 
L 103.820149 -273.430546 
L 107.215574 -267.078381 
L 110.610998 -268.468574 
L 114.006422 -267.766138 
L 117.401846 -268.402254 
L 120.79727 -268.514022 
L 124.192694 -271.570346 
L 127.588118 -267.28278 
L 130.983542 -267.919757 
L 134.378966 -273.661569 
L 137.77439 -271.696201 
L 141.169814 -273.650518 
L 144.565238 -272.039243 
L 147.960662 -270.303994 
L 151.356086 -270.323126 
L 154.75151 -269.205988 
L 158.146934 -267.524176 
L 161.542358 -266.227026 
L 164.937782 -265.449783 
L 168.333206 -263.539658 
L 171.72863 -263.929414 
L 175.124054 -259.853614 
L 178.519478 -260.514971 
L 181.914902 -259.368886 
L 185.310326 -258.748204 
L 188.70575 -256.954913 
L 192.101174 -257.723157 
L 195.496599 -256.582151 
L 198.892023 -257.180268 
L 202.287447 -256.025216 
L 205.682871 -256.790358 
L 209.078295 -255.697423 
L 212.473719 -255.764466 
L 215.869143 -265.165832 
L 219.264567 -264.584965 
L 222.659991 -263.43278 
L 226.055415 -264.774146 
L 229.450839 -263.381959 
L 232.846263 -262.949166 
L 236.241687 -262.955873 
L 239.637111 -262.091935 
L 243.032535 -261.16843 
L 246.427959 -259.770683 
L 249.823383 -258.665166 
L 253.218807 -257.180907 
L 256.614231 -256.195245 
L 260.009655 -255.677475 
L 263.405079 -255.676152 
L 266.800503 -254.422144 
L 270.195927 -255.127153 
L 273.591351 -252.967824 
L 276.986775 -252.608965 
L 280.3822 -252.207479 
L 283.777624 -251.569843 
L 287.173048 -250.402687 
L 290.568472 -250.336709 
L 293.963896 -249.793812 
L 297.35932 -249.587373 
L 300.754744 -249.313597 
L 304.150168 -248.989503 
L 307.545592 -248.376878 
L 310.941016 -247.242456 
L 314.33644 -247.330391 
L 317.731864 -247.655192 
L 321.127288 -245.48899 
L 324.522712 -245.522259 
L 327.918136 -245.212691 
L 331.31356 -245.884336 
L 334.708984 -245.423484 
L 338.104408 -245.544203 
L 341.499832 -245.729968 
L 344.895256 -244.622989 
L 348.29068 -244.289216 
L 351.686104 -243.730343 
L 355.081528 -244.387833 
L 358.476952 -244.1463 
L 361.872376 -244.410785 
L 365.2678 -243.922341 
L 368.663225 -244.542827 
L 372.058649 -245.260377 
L 375.454073 -243.853641 
L 378.849497 -244.457527 
L 382.244921 -243.620846 
L 385.640345 -243.514463 
L 389.035769 -243.652251 
L 392.431193 -242.742919 
L 395.826617 -243.660902 
L 399.222041 -242.63778 
L 402.617465 -241.853195 
L 406.012889 -243.618596 
L 409.408313 -243.12268 
L 412.803737 -241.970877 
L 416.199161 -241.385099 
L 419.594585 -240.967179 
L 422.990009 -243.168381 
L 426.385433 -240.238607 
L 429.780857 -241.223634 
L 433.176281 -240.452764 
L 436.571705 -240.561244 
L 439.967129 -239.609324 
L 443.362553 -241.036306 
L 446.757977 -239.665875 
L 450.153401 -240.233756 
L 453.548826 -239.080776 
L 456.94425 -238.906593 
L 460.339674 -237.34814 
L 463.735098 -239.725894 
L 467.130522 -238.15712 
L 470.525946 -236.679668 
L 473.92137 -234.742677 
L 477.316794 -236.316007 
L 480.712218 -234.115708 
L 484.107642 -234.875791 
L 487.503066 -233.277098 
L 490.89849 -235.085824 
L 494.293914 -232.325613 
L 497.689338 -234.187449 
L 501.084762 -230.71911 
L 504.480186 -232.941948 
L 507.87561 -229.522855 
L 511.271034 -231.705224 
L 514.666458 -228.117728 
L 518.061882 -230.971244 
L 521.457306 -226.840519 
L 524.85273 -227.958693 
L 528.248154 -221.561117 
L 531.643578 -227.384548 
L 535.039002 -222.218469 
L 538.434426 -224.690089 
L 541.829851 -219.880634 
L 545.225275 -221.080304 
L 548.620699 -216.092918 
L 552.016123 -220.478769 
L 555.411547 -214.704544 
L 558.806971 -218.076461 
L 562.202395 -204.811863 
L 565.597819 -217.774491 
L 568.993243 -205.452192 
L 572.388667 -213.345337 
L 575.784091 -203.295795 
L 575.784091 -310.573456 
L 575.784091 -310.573456 
L 572.388667 -319.798668 
L 568.993243 -311.942086 
L 565.597819 -323.606688 
L 562.202395 -311.088368 
L 558.806971 -323.286913 
L 555.411547 -321.41252 
L 552.016123 -324.034112 
L 548.620699 -320.302027 
L 545.225275 -322.64593 
L 541.829851 -323.872308 
L 538.434426 -326.741639 
L 535.039002 -324.43923 
L 531.643578 -327.791854 
L 528.248154 -322.389144 
L 524.85273 -327.533536 
L 521.457306 -328.264078 
L 518.061882 -329.929001 
L 514.666458 -328.616499 
L 511.271034 -329.797778 
L 507.87561 -327.62936 
L 504.480186 -329.586906 
L 501.084762 -327.812146 
L 497.689338 -329.250938 
L 494.293914 -327.958742 
L 490.89849 -329.719199 
L 487.503066 -328.768967 
L 484.107642 -329.699513 
L 480.712218 -328.618783 
L 477.316794 -330.124629 
L 473.92137 -329.122747 
L 470.525946 -329.724481 
L 467.130522 -330.142718 
L 463.735098 -330.421908 
L 460.339674 -330.199639 
L 456.94425 -330.553512 
L 453.548826 -329.741985 
L 450.153401 -330.153251 
L 446.757977 -330.306208 
L 443.362553 -330.556941 
L 439.967129 -330.316202 
L 436.571705 -330.463983 
L 433.176281 -330.074496 
L 429.780857 -330.05729 
L 426.385433 -329.760622 
L 422.990009 -329.816897 
L 419.594585 -329.893859 
L 416.199161 -329.488637 
L 412.803737 -329.946079 
L 409.408313 -329.89923 
L 406.012889 -329.860708 
L 402.617465 -330.063906 
L 399.222041 -329.548153 
L 395.826617 -329.39224 
L 392.431193 -329.509858 
L 389.035769 -329.03953 
L 385.640345 -328.742837 
L 382.244921 -328.906746 
L 378.849497 -328.542491 
L 375.454073 -329.040129 
L 372.058649 -328.688288 
L 368.663225 -328.962309 
L 365.2678 -328.830299 
L 361.872376 -328.639147 
L 358.476952 -328.462729 
L 355.081528 -328.440115 
L 351.686104 -328.343212 
L 348.29068 -328.480938 
L 344.895256 -328.719564 
L 341.499832 -329.204706 
L 338.104408 -329.052461 
L 334.708984 -329.052337 
L 331.31356 -328.98583 
L 327.918136 -329.105217 
L 324.522712 -328.782805 
L 321.127288 -329.132338 
L 317.731864 -330.149066 
L 314.33644 -329.147659 
L 310.941016 -329.852068 
L 307.545592 -329.877915 
L 304.150168 -329.577029 
L 300.754744 -329.780967 
L 297.35932 -329.784779 
L 293.963896 -329.472821 
L 290.568472 -329.803555 
L 287.173048 -330.338582 
L 283.777624 -329.835041 
L 280.3822 -329.716388 
L 276.986775 -330.064771 
L 273.591351 -330.194975 
L 270.195927 -330.522415 
L 266.800503 -330.261409 
L 263.405079 -330.525382 
L 260.009655 -330.567551 
L 256.614231 -329.987025 
L 253.218807 -330.000507 
L 249.823383 -329.639445 
L 246.427959 -329.482721 
L 243.032535 -329.218534 
L 239.637111 -328.87312 
L 236.241687 -328.681116 
L 232.846263 -328.788087 
L 229.450839 -328.629089 
L 226.055415 -328.205981 
L 222.659991 -328.757927 
L 219.264567 -328.379984 
L 215.869143 -328.257824 
L 212.473719 -329.703692 
L 209.078295 -330.099404 
L 205.682871 -329.870613 
L 202.287447 -330.250751 
L 198.892023 -330.069011 
L 195.496599 -330.26315 
L 192.101174 -330.318314 
L 188.70575 -330.394484 
L 185.310326 -329.766131 
L 181.914902 -329.699751 
L 178.519478 -329.431821 
L 175.124054 -329.409277 
L 171.72863 -328.378633 
L 168.333206 -328.457962 
L 164.937782 -327.8091 
L 161.542358 -327.624105 
L 158.146934 -327.129218 
L 154.75151 -326.444361 
L 151.356086 -325.912903 
L 147.960662 -326.1025 
L 144.565238 -325.450314 
L 141.169814 -324.777178 
L 137.77439 -325.661567 
L 134.378966 -324.40856 
L 130.983542 -327.332598 
L 127.588118 -327.597706 
L 124.192694 -325.48473 
L 120.79727 -326.94689 
L 117.401846 -326.960582 
L 114.006422 -327.292402 
L 110.610998 -327.065311 
L 107.215574 -327.562899 
L 103.820149 -324.727588 
L 100.424725 -323.883635 
L 97.029301 -324.182371 
L 93.633877 -323.774028 
L 90.238453 -324.667098 
L 86.843029 -326.112123 
L 83.447605 -288.779012 
L 80.052181 -288.944962 
L 76.656757 -289.277453 
L 73.261333 -290.624549 
L 69.865909 -291.022485 
z
" id="m3dab3d5b62" style="stroke:#1f77b4;stroke-opacity:0.3;"/>
    </defs>
    <g clip-path="url(#p879dee4e06)">
     <use style="fill:#1f77b4;fill-opacity:0.3;stroke:#1f77b4;stroke-opacity:0.3;" x="0" xlink:href="#m3dab3d5b62" y="345.6"/>
    </g>
   </g>
   <g id="PolyCollection_2">
    <defs>
     <path d="M 69.865909 -297.663681 
L 69.865909 -238.065751 
L 73.261333 -241.21364 
L 76.656757 -238.242044 
L 80.052181 -236.89448 
L 83.447605 -238.068232 
L 86.843029 -257.481237 
L 90.238453 -256.360519 
L 93.633877 -255.692582 
L 97.029301 -254.669705 
L 100.424725 -254.822568 
L 103.820149 -254.620782 
L 107.215574 -254.037527 
L 110.610998 -253.542225 
L 114.006422 -253.473903 
L 117.401846 -252.762753 
L 120.79727 -253.699428 
L 124.192694 -252.448552 
L 127.588118 -252.286734 
L 130.983542 -250.970026 
L 134.378966 -251.336425 
L 137.77439 -249.764029 
L 141.169814 -249.129373 
L 144.565238 -251.812365 
L 147.960662 -249.541999 
L 151.356086 -248.397163 
L 154.75151 -250.533796 
L 158.146934 -248.584976 
L 161.542358 -247.964944 
L 164.937782 -247.559167 
L 168.333206 -248.312696 
L 171.72863 -245.296072 
L 175.124054 -247.84294 
L 178.519478 -245.369037 
L 181.914902 -245.053431 
L 185.310326 -246.079087 
L 188.70575 -247.068297 
L 192.101174 -245.67187 
L 195.496599 -246.505515 
L 198.892023 -245.644155 
L 202.287447 -245.488685 
L 205.682871 -243.541449 
L 209.078295 -244.781079 
L 212.473719 -244.028518 
L 215.869143 -243.728479 
L 219.264567 -243.082356 
L 222.659991 -243.10158 
L 226.055415 -242.558861 
L 229.450839 -241.671188 
L 232.846263 -241.89054 
L 236.241687 -242.435128 
L 239.637111 -241.597559 
L 243.032535 -240.365388 
L 246.427959 -240.459386 
L 249.823383 -239.886884 
L 253.218807 -239.151315 
L 256.614231 -238.656352 
L 260.009655 -239.214151 
L 263.405079 -239.026458 
L 266.800503 -238.470395 
L 270.195927 -236.832564 
L 273.591351 -235.666662 
L 276.986775 -235.994125 
L 280.3822 -235.953963 
L 283.777624 -235.356049 
L 287.173048 -233.729153 
L 290.568472 -234.585035 
L 293.963896 -234.100923 
L 297.35932 -233.582412 
L 300.754744 -233.231711 
L 304.150168 -232.011566 
L 307.545592 -230.977217 
L 310.941016 -231.813977 
L 314.33644 -230.451588 
L 317.731864 -230.945201 
L 321.127288 -230.988011 
L 324.522712 -230.297604 
L 327.918136 -229.161258 
L 331.31356 -229.656561 
L 334.708984 -228.180781 
L 338.104408 -227.93665 
L 341.499832 -227.445871 
L 344.895256 -226.301122 
L 348.29068 -226.691185 
L 351.686104 -226.537669 
L 355.081528 -223.653791 
L 358.476952 -223.636226 
L 361.872376 -224.326486 
L 365.2678 -222.541969 
L 368.663225 -220.789285 
L 372.058649 -221.079572 
L 375.454073 -218.394472 
L 378.849497 -217.784348 
L 382.244921 -216.842154 
L 385.640345 -216.945255 
L 389.035769 -215.753407 
L 392.431193 -213.605429 
L 395.826617 -213.138344 
L 399.222041 -213.68977 
L 402.617465 -213.209287 
L 406.012889 -211.368491 
L 409.408313 -209.204768 
L 412.803737 -209.659399 
L 416.199161 -206.25173 
L 419.594585 -208.288797 
L 422.990009 -210.128142 
L 426.385433 -207.587383 
L 429.780857 -207.979084 
L 433.176281 -205.14452 
L 436.571705 -207.000591 
L 439.967129 -203.677432 
L 443.362553 -208.840802 
L 446.757977 -206.193273 
L 450.153401 -206.051841 
L 453.548826 -203.053103 
L 456.94425 -202.968019 
L 460.339674 -201.097055 
L 463.735098 -204.561648 
L 467.130522 -198.754407 
L 470.525946 -201.145462 
L 473.92137 -197.908671 
L 477.316794 -199.893411 
L 480.712218 -198.096013 
L 484.107642 -202.048365 
L 487.503066 -200.277842 
L 490.89849 -202.685139 
L 494.293914 -197.840825 
L 497.689338 -200.580148 
L 501.084762 -194.825289 
L 504.480186 -200.70586 
L 507.87561 -198.278946 
L 511.271034 -198.569365 
L 514.666458 -195.140285 
L 518.061882 -197.950056 
L 521.457306 -194.956258 
L 524.85273 -197.382418 
L 528.248154 -194.197439 
L 531.643578 -198.131658 
L 535.039002 -194.047581 
L 538.434426 -196.095119 
L 541.829851 -195.186552 
L 545.225275 -195.608974 
L 548.620699 -195.345487 
L 552.016123 -194.565379 
L 555.411547 -193.703414 
L 558.806971 -193.748238 
L 562.202395 -192.752988 
L 565.597819 -194.129821 
L 568.993243 -191.844687 
L 572.388667 -193.286581 
L 575.784091 -193.152257 
L 575.784091 -316.311624 
L 575.784091 -316.311624 
L 572.388667 -317.194249 
L 568.993243 -315.154464 
L 565.597819 -316.757322 
L 562.202395 -316.274223 
L 558.806971 -316.22368 
L 555.411547 -316.432693 
L 552.016123 -317.418254 
L 548.620699 -316.662957 
L 545.225275 -317.581192 
L 541.829851 -317.320589 
L 538.434426 -317.497274 
L 535.039002 -315.958926 
L 531.643578 -318.242897 
L 528.248154 -315.991938 
L 524.85273 -317.977376 
L 521.457306 -315.952339 
L 518.061882 -318.009722 
L 514.666458 -316.415144 
L 511.271034 -318.924009 
L 507.87561 -318.015776 
L 504.480186 -318.919051 
L 501.084762 -315.468147 
L 497.689338 -319.569584 
L 494.293914 -317.894779 
L 490.89849 -321.497656 
L 487.503066 -320.197932 
L 484.107642 -320.66928 
L 480.712218 -316.727139 
L 477.316794 -317.666076 
L 473.92137 -317.255848 
L 470.525946 -318.034606 
L 467.130522 -316.877722 
L 463.735098 -321.516543 
L 460.339674 -318.680224 
L 456.94425 -319.024423 
L 453.548826 -320.512342 
L 450.153401 -321.693195 
L 446.757977 -321.256661 
L 443.362553 -323.100318 
L 439.967129 -318.02881 
L 436.571705 -321.817584 
L 433.176281 -320.599601 
L 429.780857 -321.723376 
L 426.385433 -321.906666 
L 422.990009 -322.814166 
L 419.594585 -320.648761 
L 416.199161 -319.364688 
L 412.803737 -322.592148 
L 409.408313 -321.195312 
L 406.012889 -323.170754 
L 402.617465 -325.432346 
L 399.222041 -325.526013 
L 395.826617 -325.208041 
L 392.431193 -325.470392 
L 389.035769 -325.578734 
L 385.640345 -327.300108 
L 382.244921 -327.562143 
L 378.849497 -327.296116 
L 375.454073 -328.059195 
L 372.058649 -329.833028 
L 368.663225 -329.823979 
L 365.2678 -329.863363 
L 361.872376 -330.24395 
L 358.476952 -330.28446 
L 355.081528 -330.441154 
L 351.686104 -330.37607 
L 348.29068 -330.528748 
L 344.895256 -331.01572 
L 341.499832 -331.096185 
L 338.104408 -330.999459 
L 334.708984 -331.258694 
L 331.31356 -331.221209 
L 327.918136 -331.268313 
L 324.522712 -331.687602 
L 321.127288 -331.595718 
L 317.731864 -331.767252 
L 314.33644 -331.498007 
L 310.941016 -331.491891 
L 307.545592 -331.756544 
L 304.150168 -331.636983 
L 300.754744 -331.726992 
L 297.35932 -332.117403 
L 293.963896 -331.895454 
L 290.568472 -331.843049 
L 287.173048 -331.69643 
L 283.777624 -331.854158 
L 280.3822 -331.629573 
L 276.986775 -331.796362 
L 273.591351 -331.846382 
L 270.195927 -331.942911 
L 266.800503 -332.13553 
L 263.405079 -332.254758 
L 260.009655 -332.28 
L 256.614231 -332.175205 
L 253.218807 -331.835383 
L 249.823383 -332.002487 
L 246.427959 -332.026466 
L 243.032535 -331.78041 
L 239.637111 -331.688513 
L 236.241687 -331.642845 
L 232.846263 -331.618536 
L 229.450839 -331.628603 
L 226.055415 -331.516485 
L 222.659991 -331.527921 
L 219.264567 -331.262114 
L 215.869143 -331.344697 
L 212.473719 -331.262993 
L 209.078295 -331.165728 
L 205.682871 -331.067037 
L 202.287447 -331.159099 
L 198.892023 -331.306174 
L 195.496599 -331.262695 
L 192.101174 -331.26693 
L 188.70575 -331.085209 
L 185.310326 -331.251139 
L 181.914902 -331.575964 
L 178.519478 -331.451109 
L 175.124054 -330.825608 
L 171.72863 -331.195842 
L 168.333206 -331.024283 
L 164.937782 -331.211397 
L 161.542358 -331.423116 
L 158.146934 -331.544488 
L 154.75151 -330.698872 
L 151.356086 -331.207918 
L 147.960662 -330.647303 
L 144.565238 -330.316993 
L 141.169814 -330.699443 
L 137.77439 -330.703008 
L 134.378966 -330.252204 
L 130.983542 -330.622398 
L 127.588118 -330.232445 
L 124.192694 -330.067271 
L 120.79727 -330.428218 
L 117.401846 -330.233668 
L 114.006422 -330.075507 
L 110.610998 -330.031703 
L 107.215574 -330.413535 
L 103.820149 -330.191349 
L 100.424725 -330.230374 
L 97.029301 -330.246048 
L 93.633877 -330.579152 
L 90.238453 -330.333436 
L 86.843029 -330.355034 
L 83.447605 -297.212564 
L 80.052181 -297.77203 
L 76.656757 -297.65187 
L 73.261333 -296.445049 
L 69.865909 -297.663681 
z
" id="m1b158683ca" style="stroke:#ff7f0e;stroke-opacity:0.3;"/>
    </defs>
    <g clip-path="url(#p879dee4e06)">
     <use style="fill:#ff7f0e;fill-opacity:0.3;stroke:#ff7f0e;stroke-opacity:0.3;" x="0" xlink:href="#m1b158683ca" y="345.6"/>
    </g>
   </g>
   <g id="matplotlib.axis_1">
    <g id="xtick_1">
     <g id="line2d_1">
      <defs>
       <path d="M 0 0 
L 0 3.5 
" id="m437bf1b9d8" style="stroke:#000000;stroke-width:0.8;"/>
      </defs>
      <g>
       <use style="stroke:#000000;stroke-width:0.8;" x="66.470485" xlink:href="#m437bf1b9d8" y="303.64"/>
      </g>
     </g>
     <g id="text_1">
      <!-- 0 -->
      <defs>
       <path d="M 31.78125 66.40625 
Q 24.171875 66.40625 20.328125 58.90625 
Q 16.5 51.421875 16.5 36.375 
Q 16.5 21.390625 20.328125 13.890625 
Q 24.171875 6.390625 31.78125 6.390625 
Q 39.453125 6.390625 43.28125 13.890625 
Q 47.125 21.390625 47.125 36.375 
Q 47.125 51.421875 43.28125 58.90625 
Q 39.453125 66.40625 31.78125 66.40625 
z
M 31.78125 74.21875 
Q 44.046875 74.21875 50.515625 64.515625 
Q 56.984375 54.828125 56.984375 36.375 
Q 56.984375 17.96875 50.515625 8.265625 
Q 44.046875 -1.421875 31.78125 -1.421875 
Q 19.53125 -1.421875 13.0625 8.265625 
Q 6.59375 17.96875 6.59375 36.375 
Q 6.59375 54.828125 13.0625 64.515625 
Q 19.53125 74.21875 31.78125 74.21875 
z
" id="DejaVuSans-30"/>
      </defs>
      <g transform="translate(63.289235 318.238437)scale(0.1 -0.1)">
       <use xlink:href="#DejaVuSans-30"/>
      </g>
     </g>
    </g>
    <g id="xtick_2">
     <g id="line2d_2">
      <g>
       <use style="stroke:#000000;stroke-width:0.8;" x="134.378966" xlink:href="#m437bf1b9d8" y="303.64"/>
      </g>
     </g>
     <g id="text_2">
      <!-- 20 -->
      <defs>
       <path d="M 19.1875 8.296875 
L 53.609375 8.296875 
L 53.609375 0 
L 7.328125 0 
L 7.328125 8.296875 
Q 12.9375 14.109375 22.625 23.890625 
Q 32.328125 33.6875 34.8125 36.53125 
Q 39.546875 41.84375 41.421875 45.53125 
Q 43.3125 49.21875 43.3125 52.78125 
Q 43.3125 58.59375 39.234375 62.25 
Q 35.15625 65.921875 28.609375 65.921875 
Q 23.96875 65.921875 18.8125 64.3125 
Q 13.671875 62.703125 7.8125 59.421875 
L 7.8125 69.390625 
Q 13.765625 71.78125 18.9375 73 
Q 24.125 74.21875 28.421875 74.21875 
Q 39.75 74.21875 46.484375 68.546875 
Q 53.21875 62.890625 53.21875 53.421875 
Q 53.21875 48.921875 51.53125 44.890625 
Q 49.859375 40.875 45.40625 35.40625 
Q 44.1875 33.984375 37.640625 27.21875 
Q 31.109375 20.453125 19.1875 8.296875 
z
" id="DejaVuSans-32"/>
      </defs>
      <g transform="translate(128.016466 318.238437)scale(0.1 -0.1)">
       <use xlink:href="#DejaVuSans-32"/>
       <use x="63.623047" xlink:href="#DejaVuSans-30"/>
      </g>
     </g>
    </g>
    <g id="xtick_3">
     <g id="line2d_3">
      <g>
       <use style="stroke:#000000;stroke-width:0.8;" x="202.287447" xlink:href="#m437bf1b9d8" y="303.64"/>
      </g>
     </g>
     <g id="text_3">
      <!-- 40 -->
      <defs>
       <path d="M 37.796875 64.3125 
L 12.890625 25.390625 
L 37.796875 25.390625 
z
M 35.203125 72.90625 
L 47.609375 72.90625 
L 47.609375 25.390625 
L 58.015625 25.390625 
L 58.015625 17.1875 
L 47.609375 17.1875 
L 47.609375 0 
L 37.796875 0 
L 37.796875 17.1875 
L 4.890625 17.1875 
L 4.890625 26.703125 
z
" id="DejaVuSans-34"/>
      </defs>
      <g transform="translate(195.924947 318.238437)scale(0.1 -0.1)">
       <use xlink:href="#DejaVuSans-34"/>
       <use x="63.623047" xlink:href="#DejaVuSans-30"/>
      </g>
     </g>
    </g>
    <g id="xtick_4">
     <g id="line2d_4">
      <g>
       <use style="stroke:#000000;stroke-width:0.8;" x="270.195927" xlink:href="#m437bf1b9d8" y="303.64"/>
      </g>
     </g>
     <g id="text_4">
      <!-- 60 -->
      <defs>
       <path d="M 33.015625 40.375 
Q 26.375 40.375 22.484375 35.828125 
Q 18.609375 31.296875 18.609375 23.390625 
Q 18.609375 15.53125 22.484375 10.953125 
Q 26.375 6.390625 33.015625 6.390625 
Q 39.65625 6.390625 43.53125 10.953125 
Q 47.40625 15.53125 47.40625 23.390625 
Q 47.40625 31.296875 43.53125 35.828125 
Q 39.65625 40.375 33.015625 40.375 
z
M 52.59375 71.296875 
L 52.59375 62.3125 
Q 48.875 64.0625 45.09375 64.984375 
Q 41.3125 65.921875 37.59375 65.921875 
Q 27.828125 65.921875 22.671875 59.328125 
Q 17.53125 52.734375 16.796875 39.40625 
Q 19.671875 43.65625 24.015625 45.921875 
Q 28.375 48.1875 33.59375 48.1875 
Q 44.578125 48.1875 50.953125 41.515625 
Q 57.328125 34.859375 57.328125 23.390625 
Q 57.328125 12.15625 50.6875 5.359375 
Q 44.046875 -1.421875 33.015625 -1.421875 
Q 20.359375 -1.421875 13.671875 8.265625 
Q 6.984375 17.96875 6.984375 36.375 
Q 6.984375 53.65625 15.1875 63.9375 
Q 23.390625 74.21875 37.203125 74.21875 
Q 40.921875 74.21875 44.703125 73.484375 
Q 48.484375 72.75 52.59375 71.296875 
z
" id="DejaVuSans-36"/>
      </defs>
      <g transform="translate(263.833427 318.238437)scale(0.1 -0.1)">
       <use xlink:href="#DejaVuSans-36"/>
       <use x="63.623047" xlink:href="#DejaVuSans-30"/>
      </g>
     </g>
    </g>
    <g id="xtick_5">
     <g id="line2d_5">
      <g>
       <use style="stroke:#000000;stroke-width:0.8;" x="338.104408" xlink:href="#m437bf1b9d8" y="303.64"/>
      </g>
     </g>
     <g id="text_5">
      <!-- 80 -->
      <defs>
       <path d="M 31.78125 34.625 
Q 24.75 34.625 20.71875 30.859375 
Q 16.703125 27.09375 16.703125 20.515625 
Q 16.703125 13.921875 20.71875 10.15625 
Q 24.75 6.390625 31.78125 6.390625 
Q 38.8125 6.390625 42.859375 10.171875 
Q 46.921875 13.96875 46.921875 20.515625 
Q 46.921875 27.09375 42.890625 30.859375 
Q 38.875 34.625 31.78125 34.625 
z
M 21.921875 38.8125 
Q 15.578125 40.375 12.03125 44.71875 
Q 8.5 49.078125 8.5 55.328125 
Q 8.5 64.0625 14.71875 69.140625 
Q 20.953125 74.21875 31.78125 74.21875 
Q 42.671875 74.21875 48.875 69.140625 
Q 55.078125 64.0625 55.078125 55.328125 
Q 55.078125 49.078125 51.53125 44.71875 
Q 48 40.375 41.703125 38.8125 
Q 48.828125 37.15625 52.796875 32.3125 
Q 56.78125 27.484375 56.78125 20.515625 
Q 56.78125 9.90625 50.3125 4.234375 
Q 43.84375 -1.421875 31.78125 -1.421875 
Q 19.734375 -1.421875 13.25 4.234375 
Q 6.78125 9.90625 6.78125 20.515625 
Q 6.78125 27.484375 10.78125 32.3125 
Q 14.796875 37.15625 21.921875 38.8125 
z
M 18.3125 54.390625 
Q 18.3125 48.734375 21.84375 45.5625 
Q 25.390625 42.390625 31.78125 42.390625 
Q 38.140625 42.390625 41.71875 45.5625 
Q 45.3125 48.734375 45.3125 54.390625 
Q 45.3125 60.0625 41.71875 63.234375 
Q 38.140625 66.40625 31.78125 66.40625 
Q 25.390625 66.40625 21.84375 63.234375 
Q 18.3125 60.0625 18.3125 54.390625 
z
" id="DejaVuSans-38"/>
      </defs>
      <g transform="translate(331.741908 318.238437)scale(0.1 -0.1)">
       <use xlink:href="#DejaVuSans-38"/>
       <use x="63.623047" xlink:href="#DejaVuSans-30"/>
      </g>
     </g>
    </g>
    <g id="xtick_6">
     <g id="line2d_6">
      <g>
       <use style="stroke:#000000;stroke-width:0.8;" x="406.012889" xlink:href="#m437bf1b9d8" y="303.64"/>
      </g>
     </g>
     <g id="text_6">
      <!-- 100 -->
      <defs>
       <path d="M 12.40625 8.296875 
L 28.515625 8.296875 
L 28.515625 63.921875 
L 10.984375 60.40625 
L 10.984375 69.390625 
L 28.421875 72.90625 
L 38.28125 72.90625 
L 38.28125 8.296875 
L 54.390625 8.296875 
L 54.390625 0 
L 12.40625 0 
z
" id="DejaVuSans-31"/>
      </defs>
      <g transform="translate(396.469139 318.238437)scale(0.1 -0.1)">
       <use xlink:href="#DejaVuSans-31"/>
       <use x="63.623047" xlink:href="#DejaVuSans-30"/>
       <use x="127.246094" xlink:href="#DejaVuSans-30"/>
      </g>
     </g>
    </g>
    <g id="xtick_7">
     <g id="line2d_7">
      <g>
       <use style="stroke:#000000;stroke-width:0.8;" x="473.92137" xlink:href="#m437bf1b9d8" y="303.64"/>
      </g>
     </g>
     <g id="text_7">
      <!-- 120 -->
      <g transform="translate(464.37762 318.238437)scale(0.1 -0.1)">
       <use xlink:href="#DejaVuSans-31"/>
       <use x="63.623047" xlink:href="#DejaVuSans-32"/>
       <use x="127.246094" xlink:href="#DejaVuSans-30"/>
      </g>
     </g>
    </g>
    <g id="xtick_8">
     <g id="line2d_8">
      <g>
       <use style="stroke:#000000;stroke-width:0.8;" x="541.829851" xlink:href="#m437bf1b9d8" y="303.64"/>
      </g>
     </g>
     <g id="text_8">
      <!-- 140 -->
      <g transform="translate(532.286101 318.238437)scale(0.1 -0.1)">
       <use xlink:href="#DejaVuSans-31"/>
       <use x="63.623047" xlink:href="#DejaVuSans-34"/>
       <use x="127.246094" xlink:href="#DejaVuSans-30"/>
      </g>
     </g>
    </g>
    <g id="text_9">
     <!-- Position in read -->
     <defs>
      <path d="M 19.671875 64.796875 
L 19.671875 37.40625 
L 32.078125 37.40625 
Q 38.96875 37.40625 42.71875 40.96875 
Q 46.484375 44.53125 46.484375 51.125 
Q 46.484375 57.671875 42.71875 61.234375 
Q 38.96875 64.796875 32.078125 64.796875 
z
M 9.8125 72.90625 
L 32.078125 72.90625 
Q 44.34375 72.90625 50.609375 67.359375 
Q 56.890625 61.8125 56.890625 51.125 
Q 56.890625 40.328125 50.609375 34.8125 
Q 44.34375 29.296875 32.078125 29.296875 
L 19.671875 29.296875 
L 19.671875 0 
L 9.8125 0 
z
" id="DejaVuSans-50"/>
      <path d="M 30.609375 48.390625 
Q 23.390625 48.390625 19.1875 42.75 
Q 14.984375 37.109375 14.984375 27.296875 
Q 14.984375 17.484375 19.15625 11.84375 
Q 23.34375 6.203125 30.609375 6.203125 
Q 37.796875 6.203125 41.984375 11.859375 
Q 46.1875 17.53125 46.1875 27.296875 
Q 46.1875 37.015625 41.984375 42.703125 
Q 37.796875 48.390625 30.609375 48.390625 
z
M 30.609375 56 
Q 42.328125 56 49.015625 48.375 
Q 55.71875 40.765625 55.71875 27.296875 
Q 55.71875 13.875 49.015625 6.21875 
Q 42.328125 -1.421875 30.609375 -1.421875 
Q 18.84375 -1.421875 12.171875 6.21875 
Q 5.515625 13.875 5.515625 27.296875 
Q 5.515625 40.765625 12.171875 48.375 
Q 18.84375 56 30.609375 56 
z
" id="DejaVuSans-6f"/>
      <path d="M 44.28125 53.078125 
L 44.28125 44.578125 
Q 40.484375 46.53125 36.375 47.5 
Q 32.28125 48.484375 27.875 48.484375 
Q 21.1875 48.484375 17.84375 46.4375 
Q 14.5 44.390625 14.5 40.28125 
Q 14.5 37.15625 16.890625 35.375 
Q 19.28125 33.59375 26.515625 31.984375 
L 29.59375 31.296875 
Q 39.15625 29.25 43.1875 25.515625 
Q 47.21875 21.78125 47.21875 15.09375 
Q 47.21875 7.46875 41.1875 3.015625 
Q 35.15625 -1.421875 24.609375 -1.421875 
Q 20.21875 -1.421875 15.453125 -0.5625 
Q 10.6875 0.296875 5.421875 2 
L 5.421875 11.28125 
Q 10.40625 8.6875 15.234375 7.390625 
Q 20.0625 6.109375 24.8125 6.109375 
Q 31.15625 6.109375 34.5625 8.28125 
Q 37.984375 10.453125 37.984375 14.40625 
Q 37.984375 18.0625 35.515625 20.015625 
Q 33.0625 21.96875 24.703125 23.78125 
L 21.578125 24.515625 
Q 13.234375 26.265625 9.515625 29.90625 
Q 5.8125 33.546875 5.8125 39.890625 
Q 5.8125 47.609375 11.28125 51.796875 
Q 16.75 56 26.8125 56 
Q 31.78125 56 36.171875 55.265625 
Q 40.578125 54.546875 44.28125 53.078125 
z
" id="DejaVuSans-73"/>
      <path d="M 9.421875 54.6875 
L 18.40625 54.6875 
L 18.40625 0 
L 9.421875 0 
z
M 9.421875 75.984375 
L 18.40625 75.984375 
L 18.40625 64.59375 
L 9.421875 64.59375 
z
" id="DejaVuSans-69"/>
      <path d="M 18.3125 70.21875 
L 18.3125 54.6875 
L 36.8125 54.6875 
L 36.8125 47.703125 
L 18.3125 47.703125 
L 18.3125 18.015625 
Q 18.3125 11.328125 20.140625 9.421875 
Q 21.96875 7.515625 27.59375 7.515625 
L 36.8125 7.515625 
L 36.8125 0 
L 27.59375 0 
Q 17.1875 0 13.234375 3.875 
Q 9.28125 7.765625 9.28125 18.015625 
L 9.28125 47.703125 
L 2.6875 47.703125 
L 2.6875 54.6875 
L 9.28125 54.6875 
L 9.28125 70.21875 
z
" id="DejaVuSans-74"/>
      <path d="M 54.890625 33.015625 
L 54.890625 0 
L 45.90625 0 
L 45.90625 32.71875 
Q 45.90625 40.484375 42.875 44.328125 
Q 39.84375 48.1875 33.796875 48.1875 
Q 26.515625 48.1875 22.3125 43.546875 
Q 18.109375 38.921875 18.109375 30.90625 
L 18.109375 0 
L 9.078125 0 
L 9.078125 54.6875 
L 18.109375 54.6875 
L 18.109375 46.1875 
Q 21.34375 51.125 25.703125 53.5625 
Q 30.078125 56 35.796875 56 
Q 45.21875 56 50.046875 50.171875 
Q 54.890625 44.34375 54.890625 33.015625 
z
" id="DejaVuSans-6e"/>
      <path id="DejaVuSans-20"/>
      <path d="M 41.109375 46.296875 
Q 39.59375 47.171875 37.8125 47.578125 
Q 36.03125 48 33.890625 48 
Q 26.265625 48 22.1875 43.046875 
Q 18.109375 38.09375 18.109375 28.8125 
L 18.109375 0 
L 9.078125 0 
L 9.078125 54.6875 
L 18.109375 54.6875 
L 18.109375 46.1875 
Q 20.953125 51.171875 25.484375 53.578125 
Q 30.03125 56 36.53125 56 
Q 37.453125 56 38.578125 55.875 
Q 39.703125 55.765625 41.0625 55.515625 
z
" id="DejaVuSans-72"/>
      <path d="M 56.203125 29.59375 
L 56.203125 25.203125 
L 14.890625 25.203125 
Q 15.484375 15.921875 20.484375 11.0625 
Q 25.484375 6.203125 34.421875 6.203125 
Q 39.59375 6.203125 44.453125 7.46875 
Q 49.3125 8.734375 54.109375 11.28125 
L 54.109375 2.78125 
Q 49.265625 0.734375 44.1875 -0.34375 
Q 39.109375 -1.421875 33.890625 -1.421875 
Q 20.796875 -1.421875 13.15625 6.1875 
Q 5.515625 13.8125 5.515625 26.8125 
Q 5.515625 40.234375 12.765625 48.109375 
Q 20.015625 56 32.328125 56 
Q 43.359375 56 49.78125 48.890625 
Q 56.203125 41.796875 56.203125 29.59375 
z
M 47.21875 32.234375 
Q 47.125 39.59375 43.09375 43.984375 
Q 39.0625 48.390625 32.421875 48.390625 
Q 24.90625 48.390625 20.390625 44.140625 
Q 15.875 39.890625 15.1875 32.171875 
z
" id="DejaVuSans-65"/>
      <path d="M 34.28125 27.484375 
Q 23.390625 27.484375 19.1875 25 
Q 14.984375 22.515625 14.984375 16.5 
Q 14.984375 11.71875 18.140625 8.90625 
Q 21.296875 6.109375 26.703125 6.109375 
Q 34.1875 6.109375 38.703125 11.40625 
Q 43.21875 16.703125 43.21875 25.484375 
L 43.21875 27.484375 
z
M 52.203125 31.203125 
L 52.203125 0 
L 43.21875 0 
L 43.21875 8.296875 
Q 40.140625 3.328125 35.546875 0.953125 
Q 30.953125 -1.421875 24.3125 -1.421875 
Q 15.921875 -1.421875 10.953125 3.296875 
Q 6 8.015625 6 15.921875 
Q 6 25.140625 12.171875 29.828125 
Q 18.359375 34.515625 30.609375 34.515625 
L 43.21875 34.515625 
L 43.21875 35.40625 
Q 43.21875 41.609375 39.140625 45 
Q 35.0625 48.390625 27.6875 48.390625 
Q 23 48.390625 18.546875 47.265625 
Q 14.109375 46.140625 10.015625 43.890625 
L 10.015625 52.203125 
Q 14.9375 54.109375 19.578125 55.046875 
Q 24.21875 56 28.609375 56 
Q 40.484375 56 46.34375 49.84375 
Q 52.203125 43.703125 52.203125 31.203125 
z
" id="DejaVuSans-61"/>
      <path d="M 45.40625 46.390625 
L 45.40625 75.984375 
L 54.390625 75.984375 
L 54.390625 0 
L 45.40625 0 
L 45.40625 8.203125 
Q 42.578125 3.328125 38.25 0.953125 
Q 33.9375 -1.421875 27.875 -1.421875 
Q 17.96875 -1.421875 11.734375 6.484375 
Q 5.515625 14.40625 5.515625 27.296875 
Q 5.515625 40.1875 11.734375 48.09375 
Q 17.96875 56 27.875 56 
Q 33.9375 56 38.25 53.625 
Q 42.578125 51.265625 45.40625 46.390625 
z
M 14.796875 27.296875 
Q 14.796875 17.390625 18.875 11.75 
Q 22.953125 6.109375 30.078125 6.109375 
Q 37.203125 6.109375 41.296875 11.75 
Q 45.40625 17.390625 45.40625 27.296875 
Q 45.40625 37.203125 41.296875 42.84375 
Q 37.203125 48.484375 30.078125 48.484375 
Q 22.953125 48.484375 18.875 42.84375 
Q 14.796875 37.203125 14.796875 27.296875 
z
" id="DejaVuSans-64"/>
     </defs>
     <g transform="translate(284.077344 331.916562)scale(0.1 -0.1)">
      <use xlink:href="#DejaVuSans-50"/>
      <use x="60.255859" xlink:href="#DejaVuSans-6f"/>
      <use x="121.4375" xlink:href="#DejaVuSans-73"/>
      <use x="173.537109" xlink:href="#DejaVuSans-69"/>
      <use x="201.320312" xlink:href="#DejaVuSans-74"/>
      <use x="240.529297" xlink:href="#DejaVuSans-69"/>
      <use x="268.3125" xlink:href="#DejaVuSans-6f"/>
      <use x="329.494141" xlink:href="#DejaVuSans-6e"/>
      <use x="392.873047" xlink:href="#DejaVuSans-20"/>
      <use x="424.660156" xlink:href="#DejaVuSans-69"/>
      <use x="452.443359" xlink:href="#DejaVuSans-6e"/>
      <use x="515.822266" xlink:href="#DejaVuSans-20"/>
      <use x="547.609375" xlink:href="#DejaVuSans-72"/>
      <use x="588.691406" xlink:href="#DejaVuSans-65"/>
      <use x="650.214844" xlink:href="#DejaVuSans-61"/>
      <use x="711.494141" xlink:href="#DejaVuSans-64"/>
     </g>
    </g>
   </g>
   <g id="matplotlib.axis_2">
    <g id="ytick_1">
     <g id="line2d_9">
      <defs>
       <path d="M 0 0 
L -3.5 0 
" id="m8cfb08fa52" style="stroke:#000000;stroke-width:0.8;"/>
      </defs>
      <g>
       <use style="stroke:#000000;stroke-width:0.8;" x="44.57" xlink:href="#m8cfb08fa52" y="303.64"/>
      </g>
     </g>
     <g id="text_10">
      <!-- 0 -->
      <g transform="translate(31.2075 307.439219)scale(0.1 -0.1)">
       <use xlink:href="#DejaVuSans-30"/>
      </g>
     </g>
    </g>
    <g id="ytick_2">
     <g id="line2d_10">
      <g>
       <use style="stroke:#000000;stroke-width:0.8;" x="44.57" xlink:href="#m8cfb08fa52" y="267.153581"/>
      </g>
     </g>
     <g id="text_11">
      <!-- 5 -->
      <defs>
       <path d="M 10.796875 72.90625 
L 49.515625 72.90625 
L 49.515625 64.59375 
L 19.828125 64.59375 
L 19.828125 46.734375 
Q 21.96875 47.46875 24.109375 47.828125 
Q 26.265625 48.1875 28.421875 48.1875 
Q 40.625 48.1875 47.75 41.5 
Q 54.890625 34.8125 54.890625 23.390625 
Q 54.890625 11.625 47.5625 5.09375 
Q 40.234375 -1.421875 26.90625 -1.421875 
Q 22.3125 -1.421875 17.546875 -0.640625 
Q 12.796875 0.140625 7.71875 1.703125 
L 7.71875 11.625 
Q 12.109375 9.234375 16.796875 8.0625 
Q 21.484375 6.890625 26.703125 6.890625 
Q 35.15625 6.890625 40.078125 11.328125 
Q 45.015625 15.765625 45.015625 23.390625 
Q 45.015625 31 40.078125 35.4375 
Q 35.15625 39.890625 26.703125 39.890625 
Q 22.75 39.890625 18.8125 39.015625 
Q 14.890625 38.140625 10.796875 36.28125 
z
" id="DejaVuSans-35"/>
      </defs>
      <g transform="translate(31.2075 270.952799)scale(0.1 -0.1)">
       <use xlink:href="#DejaVuSans-35"/>
      </g>
     </g>
    </g>
    <g id="ytick_3">
     <g id="line2d_11">
      <g>
       <use style="stroke:#000000;stroke-width:0.8;" x="44.57" xlink:href="#m8cfb08fa52" y="230.667161"/>
      </g>
     </g>
     <g id="text_12">
      <!-- 10 -->
      <g transform="translate(24.845 234.46638)scale(0.1 -0.1)">
       <use xlink:href="#DejaVuSans-31"/>
       <use x="63.623047" xlink:href="#DejaVuSans-30"/>
      </g>
     </g>
    </g>
    <g id="ytick_4">
     <g id="line2d_12">
      <g>
       <use style="stroke:#000000;stroke-width:0.8;" x="44.57" xlink:href="#m8cfb08fa52" y="194.180742"/>
      </g>
     </g>
     <g id="text_13">
      <!-- 15 -->
      <g transform="translate(24.845 197.979961)scale(0.1 -0.1)">
       <use xlink:href="#DejaVuSans-31"/>
       <use x="63.623047" xlink:href="#DejaVuSans-35"/>
      </g>
     </g>
    </g>
    <g id="ytick_5">
     <g id="line2d_13">
      <g>
       <use style="stroke:#000000;stroke-width:0.8;" x="44.57" xlink:href="#m8cfb08fa52" y="157.694323"/>
      </g>
     </g>
     <g id="text_14">
      <!-- 20 -->
      <g transform="translate(24.845 161.493542)scale(0.1 -0.1)">
       <use xlink:href="#DejaVuSans-32"/>
       <use x="63.623047" xlink:href="#DejaVuSans-30"/>
      </g>
     </g>
    </g>
    <g id="ytick_6">
     <g id="line2d_14">
      <g>
       <use style="stroke:#000000;stroke-width:0.8;" x="44.57" xlink:href="#m8cfb08fa52" y="121.207904"/>
      </g>
     </g>
     <g id="text_15">
      <!-- 25 -->
      <g transform="translate(24.845 125.007122)scale(0.1 -0.1)">
       <use xlink:href="#DejaVuSans-32"/>
       <use x="63.623047" xlink:href="#DejaVuSans-35"/>
      </g>
     </g>
    </g>
    <g id="ytick_7">
     <g id="line2d_15">
      <g>
       <use style="stroke:#000000;stroke-width:0.8;" x="44.57" xlink:href="#m8cfb08fa52" y="84.721484"/>
      </g>
     </g>
     <g id="text_16">
      <!-- 30 -->
      <defs>
       <path d="M 40.578125 39.3125 
Q 47.65625 37.796875 51.625 33 
Q 55.609375 28.21875 55.609375 21.1875 
Q 55.609375 10.40625 48.1875 4.484375 
Q 40.765625 -1.421875 27.09375 -1.421875 
Q 22.515625 -1.421875 17.65625 -0.515625 
Q 12.796875 0.390625 7.625 2.203125 
L 7.625 11.71875 
Q 11.71875 9.328125 16.59375 8.109375 
Q 21.484375 6.890625 26.8125 6.890625 
Q 36.078125 6.890625 40.9375 10.546875 
Q 45.796875 14.203125 45.796875 21.1875 
Q 45.796875 27.640625 41.28125 31.265625 
Q 36.765625 34.90625 28.71875 34.90625 
L 20.21875 34.90625 
L 20.21875 43.015625 
L 29.109375 43.015625 
Q 36.375 43.015625 40.234375 45.921875 
Q 44.09375 48.828125 44.09375 54.296875 
Q 44.09375 59.90625 40.109375 62.90625 
Q 36.140625 65.921875 28.71875 65.921875 
Q 24.65625 65.921875 20.015625 65.03125 
Q 15.375 64.15625 9.8125 62.3125 
L 9.8125 71.09375 
Q 15.4375 72.65625 20.34375 73.4375 
Q 25.25 74.21875 29.59375 74.21875 
Q 40.828125 74.21875 47.359375 69.109375 
Q 53.90625 64.015625 53.90625 55.328125 
Q 53.90625 49.265625 50.4375 45.09375 
Q 46.96875 40.921875 40.578125 39.3125 
z
" id="DejaVuSans-33"/>
      </defs>
      <g transform="translate(24.845 88.520703)scale(0.1 -0.1)">
       <use xlink:href="#DejaVuSans-33"/>
       <use x="63.623047" xlink:href="#DejaVuSans-30"/>
      </g>
     </g>
    </g>
    <g id="ytick_8">
     <g id="line2d_16">
      <g>
       <use style="stroke:#000000;stroke-width:0.8;" x="44.57" xlink:href="#m8cfb08fa52" y="48.235065"/>
      </g>
     </g>
     <g id="text_17">
      <!-- 35 -->
      <g transform="translate(24.845 52.034284)scale(0.1 -0.1)">
       <use xlink:href="#DejaVuSans-33"/>
       <use x="63.623047" xlink:href="#DejaVuSans-35"/>
      </g>
     </g>
    </g>
    <g id="text_18">
     <!-- Qual score -->
     <defs>
      <path d="M 39.40625 66.21875 
Q 28.65625 66.21875 22.328125 58.203125 
Q 16.015625 50.203125 16.015625 36.375 
Q 16.015625 22.609375 22.328125 14.59375 
Q 28.65625 6.59375 39.40625 6.59375 
Q 50.140625 6.59375 56.421875 14.59375 
Q 62.703125 22.609375 62.703125 36.375 
Q 62.703125 50.203125 56.421875 58.203125 
Q 50.140625 66.21875 39.40625 66.21875 
z
M 53.21875 1.3125 
L 66.21875 -12.890625 
L 54.296875 -12.890625 
L 43.5 -1.21875 
Q 41.890625 -1.3125 41.03125 -1.359375 
Q 40.1875 -1.421875 39.40625 -1.421875 
Q 24.03125 -1.421875 14.8125 8.859375 
Q 5.609375 19.140625 5.609375 36.375 
Q 5.609375 53.65625 14.8125 63.9375 
Q 24.03125 74.21875 39.40625 74.21875 
Q 54.734375 74.21875 63.90625 63.9375 
Q 73.09375 53.65625 73.09375 36.375 
Q 73.09375 23.6875 67.984375 14.640625 
Q 62.890625 5.609375 53.21875 1.3125 
z
" id="DejaVuSans-51"/>
      <path d="M 8.5 21.578125 
L 8.5 54.6875 
L 17.484375 54.6875 
L 17.484375 21.921875 
Q 17.484375 14.15625 20.5 10.265625 
Q 23.53125 6.390625 29.59375 6.390625 
Q 36.859375 6.390625 41.078125 11.03125 
Q 45.3125 15.671875 45.3125 23.6875 
L 45.3125 54.6875 
L 54.296875 54.6875 
L 54.296875 0 
L 45.3125 0 
L 45.3125 8.40625 
Q 42.046875 3.421875 37.71875 1 
Q 33.40625 -1.421875 27.6875 -1.421875 
Q 18.265625 -1.421875 13.375 4.4375 
Q 8.5 10.296875 8.5 21.578125 
z
M 31.109375 56 
z
" id="DejaVuSans-75"/>
      <path d="M 9.421875 75.984375 
L 18.40625 75.984375 
L 18.40625 0 
L 9.421875 0 
z
" id="DejaVuSans-6c"/>
      <path d="M 48.78125 52.59375 
L 48.78125 44.1875 
Q 44.96875 46.296875 41.140625 47.34375 
Q 37.3125 48.390625 33.40625 48.390625 
Q 24.65625 48.390625 19.8125 42.84375 
Q 14.984375 37.3125 14.984375 27.296875 
Q 14.984375 17.28125 19.8125 11.734375 
Q 24.65625 6.203125 33.40625 6.203125 
Q 37.3125 6.203125 41.140625 7.25 
Q 44.96875 8.296875 48.78125 10.40625 
L 48.78125 2.09375 
Q 45.015625 0.34375 40.984375 -0.53125 
Q 36.96875 -1.421875 32.421875 -1.421875 
Q 20.0625 -1.421875 12.78125 6.34375 
Q 5.515625 14.109375 5.515625 27.296875 
Q 5.515625 40.671875 12.859375 48.328125 
Q 20.21875 56 33.015625 56 
Q 37.15625 56 41.109375 55.140625 
Q 45.0625 54.296875 48.78125 52.59375 
z
" id="DejaVuSans-63"/>
     </defs>
     <g transform="translate(18.765313 185.170625)rotate(-90)scale(0.1 -0.1)">
      <use xlink:href="#DejaVuSans-51"/>
      <use x="78.710938" xlink:href="#DejaVuSans-75"/>
      <use x="142.089844" xlink:href="#DejaVuSans-61"/>
      <use x="203.369141" xlink:href="#DejaVuSans-6c"/>
      <use x="231.152344" xlink:href="#DejaVuSans-20"/>
      <use x="262.939453" xlink:href="#DejaVuSans-73"/>
      <use x="315.039062" xlink:href="#DejaVuSans-63"/>
      <use x="370.019531" xlink:href="#DejaVuSans-6f"/>
      <use x="431.201172" xlink:href="#DejaVuSans-72"/>
      <use x="472.283203" xlink:href="#DejaVuSans-65"/>
     </g>
    </g>
   </g>
   <g id="line2d_17">
    <path clip-path="url(#p879dee4e06)" d="M 69.865909 72.932795 
L 73.261333 72.756712 
L 76.656757 72.206497 
L 83.447605 72.037564 
L 86.843029 46.819903 
L 90.238453 46.526041 
L 93.633877 45.812805 
L 97.029301 46.202042 
L 100.424725 45.910807 
L 103.820149 46.520933 
L 107.215574 48.27936 
L 110.610998 47.833058 
L 114.006422 48.07073 
L 120.79727 47.869544 
L 124.192694 47.072462 
L 127.588118 48.159757 
L 130.983542 47.973822 
L 134.378966 46.564936 
L 137.77439 46.921116 
L 141.169814 46.386152 
L 147.960662 47.396753 
L 151.356086 47.481985 
L 154.75151 47.774825 
L 161.542358 48.674435 
L 164.937782 48.970558 
L 168.333206 49.60119 
L 171.72863 49.445976 
L 175.124054 50.968555 
L 178.519478 50.626604 
L 181.914902 51.065681 
L 185.310326 51.342832 
L 188.70575 51.925302 
L 192.101174 51.579264 
L 195.496599 52.17735 
L 198.892023 51.975361 
L 202.287447 52.462017 
L 205.682871 52.269514 
L 209.078295 52.701587 
L 212.473719 52.865921 
L 215.869143 48.888172 
L 219.264567 49.117526 
L 222.659991 49.504647 
L 226.055415 49.109936 
L 229.450839 49.594476 
L 236.241687 49.781505 
L 243.032535 50.406518 
L 253.218807 52.009293 
L 256.614231 52.508865 
L 263.405079 52.499233 
L 266.800503 53.258223 
L 270.195927 52.775216 
L 273.591351 54.0186 
L 276.986775 54.263132 
L 280.3822 54.638067 
L 287.173048 55.229366 
L 290.568472 55.529868 
L 293.963896 55.966683 
L 297.35932 55.913924 
L 300.754744 56.052718 
L 307.545592 56.472604 
L 310.941016 57.052738 
L 314.33644 57.360975 
L 317.731864 56.697871 
L 321.127288 58.289336 
L 324.522712 58.447468 
L 327.918136 58.441046 
L 331.31356 58.164917 
L 334.708984 58.36209 
L 341.499832 58.132663 
L 344.895256 58.928724 
L 351.686104 59.563223 
L 355.081528 59.186026 
L 358.476952 59.295485 
L 361.872376 59.075034 
L 365.2678 59.22368 
L 368.663225 58.847432 
L 372.058649 58.625668 
L 375.454073 59.153115 
L 378.849497 59.099991 
L 385.640345 59.47135 
L 389.035769 59.25411 
L 392.431193 59.473612 
L 395.826617 59.073429 
L 399.222041 59.507033 
L 402.617465 59.641449 
L 406.012889 58.860348 
L 409.408313 59.089045 
L 416.199161 60.163132 
L 419.594585 60.169481 
L 422.990009 59.107361 
L 426.385433 60.600386 
L 429.780857 59.959538 
L 433.176281 60.33637 
L 436.571705 60.087386 
L 439.967129 60.637237 
L 443.362553 59.803376 
L 446.757977 60.613958 
L 450.153401 60.406497 
L 453.548826 61.18862 
L 456.94425 60.869947 
L 460.339674 61.82611 
L 463.735098 60.526099 
L 470.525946 62.397925 
L 473.92137 63.667288 
L 477.316794 62.379682 
L 480.712218 64.232755 
L 484.107642 63.312348 
L 487.503066 64.576967 
L 490.89849 63.197489 
L 494.293914 65.457823 
L 497.689338 63.880807 
L 501.084762 66.334372 
L 504.480186 64.335573 
L 507.87561 67.023893 
L 511.271034 64.848499 
L 514.666458 67.232887 
L 518.061882 65.149877 
L 521.457306 68.047702 
L 524.85273 67.853886 
L 528.248154 73.62487 
L 531.643578 68.011799 
L 535.039002 72.271151 
L 538.434426 69.884136 
L 541.829851 73.723529 
L 545.225275 73.736883 
L 548.620699 77.402528 
L 552.016123 73.343559 
L 555.411547 77.541468 
L 558.806971 74.918313 
L 562.202395 87.649884 
L 565.597819 74.909411 
L 568.993243 86.902861 
L 572.388667 79.027998 
L 575.784091 88.665374 
L 575.784091 88.665374 
" style="fill:none;stroke:#1f77b4;stroke-linecap:square;"/>
   </g>
   <g id="line2d_18">
    <path clip-path="url(#p879dee4e06)" d="M 69.865909 54.577515 
L 73.261333 54.975451 
L 76.656757 56.322547 
L 80.052181 56.655038 
L 83.447605 56.820988 
L 86.843029 19.487877 
L 90.238453 20.932902 
L 93.633877 21.825972 
L 97.029301 21.417629 
L 100.424725 21.716365 
L 103.820149 20.872412 
L 107.215574 18.037101 
L 110.610998 18.534689 
L 114.006422 18.307598 
L 117.401846 18.639418 
L 120.79727 18.65311 
L 124.192694 20.11527 
L 127.588118 18.002294 
L 130.983542 18.267402 
L 134.378966 21.19144 
L 137.77439 19.938433 
L 141.169814 20.822822 
L 147.960662 19.4975 
L 151.356086 19.687097 
L 154.75151 19.155639 
L 158.146934 18.470782 
L 161.542358 17.975895 
L 164.937782 17.7909 
L 168.333206 17.142038 
L 171.72863 17.221367 
L 175.124054 16.190723 
L 178.519478 16.168179 
L 181.914902 15.900249 
L 185.310326 15.833869 
L 188.70575 15.205516 
L 198.892023 15.530989 
L 202.287447 15.349249 
L 205.682871 15.729387 
L 209.078295 15.500596 
L 212.473719 15.896308 
L 215.869143 17.342176 
L 219.264567 17.220016 
L 222.659991 16.842073 
L 226.055415 17.394019 
L 229.450839 16.970911 
L 232.846263 16.811913 
L 236.241687 16.918884 
L 239.637111 16.72688 
L 246.427959 16.117279 
L 249.823383 15.960555 
L 253.218807 15.599493 
L 256.614231 15.612975 
L 260.009655 15.032449 
L 263.405079 15.074618 
L 266.800503 15.338591 
L 270.195927 15.077585 
L 273.591351 15.405025 
L 276.986775 15.535229 
L 280.3822 15.883612 
L 283.777624 15.764959 
L 287.173048 15.261418 
L 290.568472 15.796445 
L 293.963896 16.127179 
L 297.35932 15.815221 
L 300.754744 15.819033 
L 304.150168 16.022971 
L 307.545592 15.722085 
L 310.941016 15.747932 
L 314.33644 16.452341 
L 317.731864 15.450934 
L 321.127288 16.467662 
L 324.522712 16.817195 
L 327.918136 16.494783 
L 331.31356 16.61417 
L 341.499832 16.395294 
L 344.895256 16.880436 
L 351.686104 17.256788 
L 365.2678 16.769701 
L 368.663225 16.637691 
L 372.058649 16.911712 
L 375.454073 16.559871 
L 378.849497 17.057509 
L 382.244921 16.693254 
L 385.640345 16.857163 
L 389.035769 16.56047 
L 392.431193 16.090142 
L 395.826617 16.20776 
L 399.222041 16.051847 
L 402.617465 15.536094 
L 406.012889 15.739292 
L 412.803737 15.653921 
L 416.199161 16.111363 
L 419.594585 15.706141 
L 426.385433 15.839378 
L 429.780857 15.54271 
L 433.176281 15.525504 
L 436.571705 15.136017 
L 439.967129 15.283798 
L 443.362553 15.043059 
L 453.548826 15.858015 
L 456.94425 15.046488 
L 460.339674 15.400361 
L 463.735098 15.178092 
L 467.130522 15.457282 
L 470.525946 15.875519 
L 473.92137 16.477253 
L 477.316794 15.475371 
L 480.712218 16.981217 
L 484.107642 15.900487 
L 487.503066 16.831033 
L 490.89849 15.880801 
L 494.293914 17.641258 
L 497.689338 16.349062 
L 501.084762 17.787854 
L 504.480186 16.013094 
L 507.87561 17.97064 
L 511.271034 15.802222 
L 514.666458 16.983501 
L 518.061882 15.670999 
L 521.457306 17.335922 
L 524.85273 18.066464 
L 528.248154 23.210856 
L 531.643578 17.808146 
L 535.039002 21.16077 
L 538.434426 18.858361 
L 541.829851 21.727692 
L 545.225275 22.95407 
L 548.620699 25.297973 
L 552.016123 21.565888 
L 555.411547 24.18748 
L 558.806971 22.313087 
L 562.202395 34.511632 
L 565.597819 21.993312 
L 568.993243 33.657914 
L 572.388667 25.801332 
L 575.784091 35.026544 
L 575.784091 35.026544 
" style="fill:none;stroke:#1f77b4;stroke-linecap:square;stroke-width:0.5;"/>
   </g>
   <g id="line2d_19">
    <path clip-path="url(#p879dee4e06)" d="M 69.865909 91.288075 
L 73.261333 90.537972 
L 76.656757 88.090446 
L 80.052181 87.524442 
L 83.447605 87.254141 
L 86.843029 74.151929 
L 90.238453 72.11918 
L 93.633877 69.799637 
L 97.029301 70.986455 
L 100.424725 70.10525 
L 103.820149 72.169454 
L 107.215574 78.521619 
L 110.610998 77.131426 
L 114.006422 77.833862 
L 117.401846 77.197746 
L 120.79727 77.085978 
L 124.192694 74.029654 
L 127.588118 78.31722 
L 130.983542 77.680243 
L 134.378966 71.938431 
L 137.77439 73.903799 
L 141.169814 71.949482 
L 144.565238 73.560757 
L 147.960662 75.296006 
L 151.356086 75.276874 
L 154.75151 76.394012 
L 158.146934 78.075824 
L 161.542358 79.372974 
L 164.937782 80.150217 
L 168.333206 82.060342 
L 171.72863 81.670586 
L 175.124054 85.746386 
L 178.519478 85.085029 
L 181.914902 86.231114 
L 185.310326 86.851796 
L 188.70575 88.645087 
L 192.101174 87.876843 
L 195.496599 89.017849 
L 198.892023 88.419732 
L 202.287447 89.574784 
L 205.682871 88.809642 
L 209.078295 89.902577 
L 212.473719 89.835534 
L 215.869143 80.434168 
L 219.264567 81.015035 
L 222.659991 82.16722 
L 226.055415 80.825854 
L 229.450839 82.218041 
L 232.846263 82.650834 
L 236.241687 82.644127 
L 243.032535 84.43157 
L 246.427959 85.829317 
L 249.823383 86.934834 
L 253.218807 88.419093 
L 256.614231 89.404755 
L 260.009655 89.922525 
L 263.405079 89.923848 
L 266.800503 91.177856 
L 270.195927 90.472847 
L 273.591351 92.632176 
L 280.3822 93.392521 
L 283.777624 94.030157 
L 287.173048 95.197313 
L 290.568472 95.263291 
L 293.963896 95.806188 
L 300.754744 96.286403 
L 304.150168 96.610497 
L 307.545592 97.223122 
L 310.941016 98.357544 
L 314.33644 98.269609 
L 317.731864 97.944808 
L 321.127288 100.11101 
L 324.522712 100.077741 
L 327.918136 100.387309 
L 331.31356 99.715664 
L 334.708984 100.176516 
L 341.499832 99.870032 
L 344.895256 100.977011 
L 348.29068 101.310784 
L 351.686104 101.869657 
L 355.081528 101.212167 
L 358.476952 101.4537 
L 361.872376 101.189215 
L 365.2678 101.677659 
L 372.058649 100.339623 
L 375.454073 101.746359 
L 378.849497 101.142473 
L 382.244921 101.979154 
L 385.640345 102.085537 
L 389.035769 101.947749 
L 392.431193 102.857081 
L 395.826617 101.939098 
L 399.222041 102.96222 
L 402.617465 103.746805 
L 406.012889 101.981404 
L 409.408313 102.47732 
L 412.803737 103.629123 
L 416.199161 104.214901 
L 419.594585 104.632821 
L 422.990009 102.431619 
L 426.385433 105.361393 
L 429.780857 104.376366 
L 433.176281 105.147236 
L 436.571705 105.038756 
L 439.967129 105.990676 
L 443.362553 104.563694 
L 446.757977 105.934125 
L 450.153401 105.366244 
L 453.548826 106.519224 
L 456.94425 106.693407 
L 460.339674 108.25186 
L 463.735098 105.874106 
L 470.525946 108.920332 
L 473.92137 110.857323 
L 477.316794 109.283993 
L 480.712218 111.484292 
L 484.107642 110.724209 
L 487.503066 112.322902 
L 490.89849 110.514176 
L 494.293914 113.274387 
L 497.689338 111.412551 
L 501.084762 114.88089 
L 504.480186 112.658052 
L 507.87561 116.077145 
L 511.271034 113.894776 
L 514.666458 117.482272 
L 518.061882 114.628756 
L 521.457306 118.759481 
L 524.85273 117.641307 
L 528.248154 124.038883 
L 531.643578 118.215452 
L 535.039002 123.381531 
L 538.434426 120.909911 
L 541.829851 125.719366 
L 545.225275 124.519696 
L 548.620699 129.507082 
L 552.016123 125.121231 
L 555.411547 130.895456 
L 558.806971 127.523539 
L 562.202395 140.788137 
L 565.597819 127.825509 
L 568.993243 140.147808 
L 572.388667 132.254663 
L 575.784091 142.304205 
L 575.784091 142.304205 
" style="fill:none;stroke:#1f77b4;stroke-linecap:square;stroke-width:0.5;"/>
   </g>
   <g id="line2d_20">
    <path clip-path="url(#p879dee4e06)" d="M 69.865909 77.735284 
L 73.261333 76.770656 
L 76.656757 77.653043 
L 80.052181 78.266745 
L 83.447605 77.959602 
L 86.843029 51.681864 
L 90.238453 52.253023 
L 93.633877 52.464133 
L 97.029301 53.142124 
L 100.424725 53.073529 
L 107.215574 53.374469 
L 110.610998 53.813036 
L 114.006422 53.825295 
L 117.401846 54.101789 
L 120.79727 53.536177 
L 124.192694 54.342089 
L 127.588118 54.340411 
L 130.983542 54.803788 
L 134.378966 54.805685 
L 137.77439 55.366482 
L 141.169814 55.685592 
L 144.565238 54.535321 
L 147.960662 55.505349 
L 151.356086 55.797459 
L 154.75151 54.983666 
L 158.146934 55.535268 
L 164.937782 56.214718 
L 168.333206 55.93151 
L 171.72863 57.354043 
L 175.124054 56.265726 
L 178.519478 57.189927 
L 181.914902 57.285302 
L 188.70575 56.523247 
L 192.101174 57.1306 
L 195.496599 56.715895 
L 198.892023 57.124835 
L 202.287447 57.276108 
L 205.682871 58.295757 
L 209.078295 57.626596 
L 212.473719 57.954244 
L 215.869143 58.063412 
L 219.264567 58.427765 
L 222.659991 58.285249 
L 229.450839 58.950105 
L 232.846263 58.845462 
L 236.241687 58.561014 
L 239.637111 58.956964 
L 243.032535 59.527101 
L 246.427959 59.357074 
L 249.823383 59.655314 
L 253.218807 60.106651 
L 256.614231 60.184221 
L 260.009655 59.852925 
L 263.405079 59.959392 
L 266.800503 60.297037 
L 270.195927 61.212263 
L 273.591351 61.843478 
L 276.986775 61.704756 
L 283.777624 61.994896 
L 287.173048 62.887208 
L 290.568472 62.385958 
L 300.754744 63.120648 
L 304.150168 63.775726 
L 307.545592 64.233119 
L 310.941016 63.947066 
L 314.33644 64.625202 
L 317.731864 64.243773 
L 321.127288 64.308135 
L 324.522712 64.607397 
L 327.918136 65.385215 
L 331.31356 65.161115 
L 334.708984 65.880262 
L 341.499832 66.328972 
L 344.895256 66.941579 
L 351.686104 67.14313 
L 355.081528 68.552528 
L 358.476952 68.639657 
L 361.872376 68.314782 
L 365.2678 69.397334 
L 368.663225 70.293368 
L 372.058649 70.1437 
L 375.454073 72.373167 
L 378.849497 73.059768 
L 382.244921 73.397851 
L 385.640345 73.477319 
L 389.035769 74.933929 
L 392.431193 76.062089 
L 395.826617 76.426808 
L 399.222041 75.992109 
L 402.617465 76.279184 
L 409.408313 80.39996 
L 412.803737 79.474226 
L 416.199161 82.791791 
L 419.594585 81.131221 
L 422.990009 79.128846 
L 426.385433 80.852975 
L 429.780857 80.74877 
L 433.176281 82.727939 
L 436.571705 81.190912 
L 439.967129 84.746879 
L 443.362553 79.62944 
L 446.757977 81.875033 
L 450.153401 81.727482 
L 453.548826 83.817278 
L 456.94425 84.603779 
L 460.339674 85.711361 
L 463.735098 82.560905 
L 467.130522 87.783935 
L 470.525946 86.009966 
L 473.92137 88.01774 
L 477.316794 86.820256 
L 480.712218 88.188424 
L 484.107642 84.241177 
L 487.503066 85.362113 
L 490.89849 83.508603 
L 494.293914 87.732198 
L 497.689338 85.525134 
L 501.084762 90.453282 
L 504.480186 85.787545 
L 507.87561 87.452639 
L 511.271034 86.853313 
L 514.666458 89.822286 
L 518.061882 87.620111 
L 521.457306 90.145701 
L 524.85273 87.920103 
L 528.248154 90.505312 
L 531.643578 87.412723 
L 535.039002 90.596746 
L 538.434426 88.803804 
L 541.829851 89.34643 
L 545.225275 89.004917 
L 548.620699 89.595778 
L 552.016123 89.608183 
L 555.411547 90.531947 
L 558.806971 90.614041 
L 562.202395 91.086394 
L 565.597819 90.156428 
L 568.993243 92.100425 
L 572.388667 90.359585 
L 575.784091 90.86806 
L 575.784091 90.86806 
" style="fill:none;stroke:#ff7f0e;stroke-linecap:square;"/>
   </g>
   <g id="line2d_21">
    <path clip-path="url(#p879dee4e06)" d="M 69.865909 47.936319 
L 73.261333 49.154951 
L 76.656757 47.94813 
L 80.052181 47.82797 
L 83.447605 48.387436 
L 86.843029 15.244966 
L 90.238453 15.266564 
L 93.633877 15.020848 
L 97.029301 15.353952 
L 103.820149 15.408651 
L 107.215574 15.186465 
L 110.610998 15.568297 
L 114.006422 15.524493 
L 120.79727 15.171782 
L 124.192694 15.532729 
L 127.588118 15.367555 
L 130.983542 14.977602 
L 134.378966 15.347796 
L 137.77439 14.896992 
L 141.169814 14.900557 
L 144.565238 15.283007 
L 147.960662 14.952697 
L 151.356086 14.392082 
L 154.75151 14.901128 
L 158.146934 14.055512 
L 164.937782 14.388603 
L 168.333206 14.575717 
L 171.72863 14.404158 
L 175.124054 14.774392 
L 178.519478 14.148891 
L 181.914902 14.024036 
L 185.310326 14.348861 
L 188.70575 14.514791 
L 192.101174 14.33307 
L 202.287447 14.440901 
L 205.682871 14.532963 
L 215.869143 14.255303 
L 219.264567 14.337886 
L 222.659991 14.072079 
L 226.055415 14.083515 
L 229.450839 13.971397 
L 239.637111 13.911487 
L 243.032535 13.81959 
L 246.427959 13.573534 
L 249.823383 13.597513 
L 253.218807 13.764617 
L 256.614231 13.424795 
L 260.009655 13.32 
L 266.800503 13.46447 
L 273.591351 13.753618 
L 276.986775 13.803638 
L 280.3822 13.970427 
L 283.777624 13.745842 
L 287.173048 13.90357 
L 297.35932 13.482597 
L 300.754744 13.873008 
L 304.150168 13.963017 
L 307.545592 13.843456 
L 310.941016 14.108109 
L 314.33644 14.101993 
L 317.731864 13.832748 
L 321.127288 14.004282 
L 324.522712 13.912398 
L 327.918136 14.331687 
L 334.708984 14.341306 
L 338.104408 14.600541 
L 341.499832 14.503815 
L 344.895256 14.58428 
L 348.29068 15.071252 
L 351.686104 15.22393 
L 355.081528 15.158846 
L 358.476952 15.31554 
L 361.872376 15.35605 
L 365.2678 15.736637 
L 372.058649 15.766972 
L 375.454073 17.540805 
L 378.849497 18.303884 
L 382.244921 18.037857 
L 385.640345 18.299892 
L 389.035769 20.021266 
L 392.431193 20.129608 
L 395.826617 20.391959 
L 399.222041 20.073987 
L 402.617465 20.167654 
L 406.012889 22.429246 
L 409.408313 24.404688 
L 412.803737 23.007852 
L 416.199161 26.235312 
L 419.594585 24.951239 
L 422.990009 22.785834 
L 426.385433 23.693334 
L 429.780857 23.876624 
L 433.176281 25.000399 
L 436.571705 23.782416 
L 439.967129 27.57119 
L 443.362553 22.499682 
L 446.757977 24.343339 
L 450.153401 23.906805 
L 453.548826 25.087658 
L 456.94425 26.575577 
L 460.339674 26.919776 
L 463.735098 24.083457 
L 467.130522 28.722278 
L 470.525946 27.565394 
L 473.92137 28.344152 
L 477.316794 27.933924 
L 480.712218 28.872861 
L 484.107642 24.93072 
L 487.503066 25.402068 
L 490.89849 24.102344 
L 494.293914 27.705221 
L 497.689338 26.030416 
L 501.084762 30.131853 
L 504.480186 26.680949 
L 507.87561 27.584224 
L 511.271034 26.675991 
L 514.666458 29.184856 
L 518.061882 27.590278 
L 521.457306 29.647661 
L 524.85273 27.622624 
L 528.248154 29.608062 
L 531.643578 27.357103 
L 535.039002 29.641074 
L 538.434426 28.102726 
L 541.829851 28.279411 
L 545.225275 28.018808 
L 548.620699 28.937043 
L 552.016123 28.181746 
L 555.411547 29.167307 
L 558.806971 29.37632 
L 562.202395 29.325777 
L 565.597819 28.842678 
L 568.993243 30.445536 
L 572.388667 28.405751 
L 575.784091 29.288376 
L 575.784091 29.288376 
" style="fill:none;stroke:#ff7f0e;stroke-linecap:square;stroke-width:0.5;"/>
   </g>
   <g id="line2d_22">
    <path clip-path="url(#p879dee4e06)" d="M 69.865909 107.534249 
L 73.261333 104.38636 
L 76.656757 107.357956 
L 80.052181 108.70552 
L 83.447605 107.531768 
L 86.843029 88.118763 
L 90.238453 89.239481 
L 93.633877 89.907418 
L 97.029301 90.930295 
L 100.424725 90.777432 
L 103.820149 90.979218 
L 110.610998 92.057775 
L 114.006422 92.126097 
L 117.401846 92.837247 
L 120.79727 91.900572 
L 124.192694 93.151448 
L 127.588118 93.313266 
L 130.983542 94.629974 
L 134.378966 94.263575 
L 137.77439 95.835971 
L 141.169814 96.470627 
L 144.565238 93.787635 
L 147.960662 96.058001 
L 151.356086 97.202837 
L 154.75151 95.066204 
L 158.146934 97.015024 
L 161.542358 97.635056 
L 164.937782 98.040833 
L 168.333206 97.287304 
L 171.72863 100.303928 
L 175.124054 97.75706 
L 178.519478 100.230963 
L 181.914902 100.546569 
L 188.70575 98.531703 
L 192.101174 99.92813 
L 195.496599 99.094485 
L 198.892023 99.955845 
L 202.287447 100.111315 
L 205.682871 102.058551 
L 209.078295 100.818921 
L 212.473719 101.571482 
L 215.869143 101.871521 
L 219.264567 102.517644 
L 222.659991 102.49842 
L 226.055415 103.041139 
L 229.450839 103.928812 
L 232.846263 103.70946 
L 236.241687 103.164872 
L 239.637111 104.002441 
L 243.032535 105.234612 
L 246.427959 105.140614 
L 249.823383 105.713116 
L 253.218807 106.448685 
L 256.614231 106.943648 
L 260.009655 106.385849 
L 263.405079 106.573542 
L 266.800503 107.129605 
L 270.195927 108.767436 
L 273.591351 109.933338 
L 276.986775 109.605875 
L 280.3822 109.646037 
L 283.777624 110.243951 
L 287.173048 111.870847 
L 290.568472 111.014965 
L 300.754744 112.368289 
L 304.150168 113.588434 
L 307.545592 114.622783 
L 310.941016 113.786023 
L 314.33644 115.148412 
L 317.731864 114.654799 
L 321.127288 114.611989 
L 324.522712 115.302396 
L 327.918136 116.438742 
L 331.31356 115.943439 
L 334.708984 117.419219 
L 338.104408 117.66335 
L 341.499832 118.154129 
L 344.895256 119.298878 
L 348.29068 118.908815 
L 351.686104 119.062331 
L 355.081528 121.946209 
L 358.476952 121.963774 
L 361.872376 121.273514 
L 368.663225 124.810715 
L 372.058649 124.520428 
L 375.454073 127.205528 
L 378.849497 127.815652 
L 382.244921 128.757846 
L 385.640345 128.654745 
L 389.035769 129.846593 
L 392.431193 131.994571 
L 395.826617 132.461656 
L 399.222041 131.91023 
L 402.617465 132.390713 
L 406.012889 134.231509 
L 409.408313 136.395232 
L 412.803737 135.940601 
L 416.199161 139.34827 
L 419.594585 137.311203 
L 422.990009 135.471858 
L 426.385433 138.012617 
L 429.780857 137.620916 
L 433.176281 140.45548 
L 436.571705 138.599409 
L 439.967129 141.922568 
L 443.362553 136.759198 
L 446.757977 139.406727 
L 450.153401 139.548159 
L 453.548826 142.546897 
L 456.94425 142.631981 
L 460.339674 144.502945 
L 463.735098 141.038352 
L 467.130522 146.845593 
L 470.525946 144.454538 
L 473.92137 147.691329 
L 477.316794 145.706589 
L 480.712218 147.503987 
L 484.107642 143.551635 
L 487.503066 145.322158 
L 490.89849 142.914861 
L 494.293914 147.759175 
L 497.689338 145.019852 
L 501.084762 150.774711 
L 504.480186 144.89414 
L 507.87561 147.321054 
L 511.271034 147.030635 
L 514.666458 150.459715 
L 518.061882 147.649944 
L 521.457306 150.643742 
L 524.85273 148.217582 
L 528.248154 151.402561 
L 531.643578 147.468342 
L 535.039002 151.552419 
L 538.434426 149.504881 
L 541.829851 150.413448 
L 545.225275 149.991026 
L 548.620699 150.254513 
L 555.411547 151.896586 
L 558.806971 151.851762 
L 562.202395 152.847012 
L 565.597819 151.470179 
L 568.993243 153.755313 
L 572.388667 152.313419 
L 575.784091 152.447743 
L 575.784091 152.447743 
" style="fill:none;stroke:#ff7f0e;stroke-linecap:square;stroke-width:0.5;"/>
   </g>
   <g id="patch_3">
    <path d="M 44.57 303.64 
L 44.57 13.32 
" style="fill:none;stroke:#000000;stroke-linecap:square;stroke-linejoin:miter;stroke-width:0.8;"/>
   </g>
   <g id="patch_4">
    <path d="M 601.08 303.64 
L 601.08 13.32 
" style="fill:none;stroke:#000000;stroke-linecap:square;stroke-linejoin:miter;stroke-width:0.8;"/>
   </g>
   <g id="patch_5">
    <path d="M 44.57 303.64 
L 601.08 303.64 
" style="fill:none;stroke:#000000;stroke-linecap:square;stroke-linejoin:miter;stroke-width:0.8;"/>
   </g>
   <g id="patch_6">
    <path d="M 44.57 13.32 
L 601.08 13.32 
" style="fill:none;stroke:#000000;stroke-linecap:square;stroke-linejoin:miter;stroke-width:0.8;"/>
   </g>
   <g id="legend_1">
    <g id="patch_7">
     <path d="M 51.57 298.64 
L 165.921562 298.64 
Q 167.921562 298.64 167.921562 296.64 
L 167.921562 268.28375 
Q 167.921562 266.28375 165.921562 266.28375 
L 51.57 266.28375 
Q 49.57 266.28375 49.57 268.28375 
L 49.57 296.64 
Q 49.57 298.64 51.57 298.64 
z
" style="fill:#ffffff;opacity:0.8;stroke:#cccccc;stroke-linejoin:miter;"/>
    </g>
    <g id="line2d_23">
     <path d="M 53.57 274.382187 
L 73.57 274.382187 
" style="fill:none;stroke:#1f77b4;stroke-linecap:square;"/>
    </g>
    <g id="line2d_24"/>
    <g id="text_19">
     <!-- profile.INS.r1.txt -->
     <defs>
      <path d="M 18.109375 8.203125 
L 18.109375 -20.796875 
L 9.078125 -20.796875 
L 9.078125 54.6875 
L 18.109375 54.6875 
L 18.109375 46.390625 
Q 20.953125 51.265625 25.265625 53.625 
Q 29.59375 56 35.59375 56 
Q 45.5625 56 51.78125 48.09375 
Q 58.015625 40.1875 58.015625 27.296875 
Q 58.015625 14.40625 51.78125 6.484375 
Q 45.5625 -1.421875 35.59375 -1.421875 
Q 29.59375 -1.421875 25.265625 0.953125 
Q 20.953125 3.328125 18.109375 8.203125 
z
M 48.6875 27.296875 
Q 48.6875 37.203125 44.609375 42.84375 
Q 40.53125 48.484375 33.40625 48.484375 
Q 26.265625 48.484375 22.1875 42.84375 
Q 18.109375 37.203125 18.109375 27.296875 
Q 18.109375 17.390625 22.1875 11.75 
Q 26.265625 6.109375 33.40625 6.109375 
Q 40.53125 6.109375 44.609375 11.75 
Q 48.6875 17.390625 48.6875 27.296875 
z
" id="DejaVuSans-70"/>
      <path d="M 37.109375 75.984375 
L 37.109375 68.5 
L 28.515625 68.5 
Q 23.6875 68.5 21.796875 66.546875 
Q 19.921875 64.59375 19.921875 59.515625 
L 19.921875 54.6875 
L 34.71875 54.6875 
L 34.71875 47.703125 
L 19.921875 47.703125 
L 19.921875 0 
L 10.890625 0 
L 10.890625 47.703125 
L 2.296875 47.703125 
L 2.296875 54.6875 
L 10.890625 54.6875 
L 10.890625 58.5 
Q 10.890625 67.625 15.140625 71.796875 
Q 19.390625 75.984375 28.609375 75.984375 
z
" id="DejaVuSans-66"/>
      <path d="M 10.6875 12.40625 
L 21 12.40625 
L 21 0 
L 10.6875 0 
z
" id="DejaVuSans-2e"/>
      <path d="M 9.8125 72.90625 
L 19.671875 72.90625 
L 19.671875 0 
L 9.8125 0 
z
" id="DejaVuSans-49"/>
      <path d="M 9.8125 72.90625 
L 23.09375 72.90625 
L 55.421875 11.921875 
L 55.421875 72.90625 
L 64.984375 72.90625 
L 64.984375 0 
L 51.703125 0 
L 19.390625 60.984375 
L 19.390625 0 
L 9.8125 0 
z
" id="DejaVuSans-4e"/>
      <path d="M 53.515625 70.515625 
L 53.515625 60.890625 
Q 47.90625 63.578125 42.921875 64.890625 
Q 37.9375 66.21875 33.296875 66.21875 
Q 25.25 66.21875 20.875 63.09375 
Q 16.5 59.96875 16.5 54.203125 
Q 16.5 49.359375 19.40625 46.890625 
Q 22.3125 44.4375 30.421875 42.921875 
L 36.375 41.703125 
Q 47.40625 39.59375 52.65625 34.296875 
Q 57.90625 29 57.90625 20.125 
Q 57.90625 9.515625 50.796875 4.046875 
Q 43.703125 -1.421875 29.984375 -1.421875 
Q 24.8125 -1.421875 18.96875 -0.25 
Q 13.140625 0.921875 6.890625 3.21875 
L 6.890625 13.375 
Q 12.890625 10.015625 18.65625 8.296875 
Q 24.421875 6.59375 29.984375 6.59375 
Q 38.421875 6.59375 43.015625 9.90625 
Q 47.609375 13.234375 47.609375 19.390625 
Q 47.609375 24.75 44.3125 27.78125 
Q 41.015625 30.8125 33.5 32.328125 
L 27.484375 33.5 
Q 16.453125 35.6875 11.515625 40.375 
Q 6.59375 45.0625 6.59375 53.421875 
Q 6.59375 63.09375 13.40625 68.65625 
Q 20.21875 74.21875 32.171875 74.21875 
Q 37.3125 74.21875 42.625 73.28125 
Q 47.953125 72.359375 53.515625 70.515625 
z
" id="DejaVuSans-53"/>
      <path d="M 54.890625 54.6875 
L 35.109375 28.078125 
L 55.90625 0 
L 45.3125 0 
L 29.390625 21.484375 
L 13.484375 0 
L 2.875 0 
L 24.125 28.609375 
L 4.6875 54.6875 
L 15.28125 54.6875 
L 29.78125 35.203125 
L 44.28125 54.6875 
z
" id="DejaVuSans-78"/>
     </defs>
     <g transform="translate(81.57 277.882187)scale(0.1 -0.1)">
      <use xlink:href="#DejaVuSans-70"/>
      <use x="63.476562" xlink:href="#DejaVuSans-72"/>
      <use x="104.558594" xlink:href="#DejaVuSans-6f"/>
      <use x="165.740234" xlink:href="#DejaVuSans-66"/>
      <use x="200.945312" xlink:href="#DejaVuSans-69"/>
      <use x="228.728516" xlink:href="#DejaVuSans-6c"/>
      <use x="256.511719" xlink:href="#DejaVuSans-65"/>
      <use x="318.035156" xlink:href="#DejaVuSans-2e"/>
      <use x="349.822266" xlink:href="#DejaVuSans-49"/>
      <use x="379.314453" xlink:href="#DejaVuSans-4e"/>
      <use x="454.119141" xlink:href="#DejaVuSans-53"/>
      <use x="517.595703" xlink:href="#DejaVuSans-2e"/>
      <use x="549.382812" xlink:href="#DejaVuSans-72"/>
      <use x="590.496094" xlink:href="#DejaVuSans-31"/>
      <use x="654.119141" xlink:href="#DejaVuSans-2e"/>
      <use x="685.90625" xlink:href="#DejaVuSans-74"/>
      <use x="725.115234" xlink:href="#DejaVuSans-78"/>
      <use x="784.294922" xlink:href="#DejaVuSans-74"/>
     </g>
    </g>
    <g id="line2d_25">
     <path d="M 53.57 289.060312 
L 73.57 289.060312 
" style="fill:none;stroke:#ff7f0e;stroke-linecap:square;"/>
    </g>
    <g id="line2d_26"/>
    <g id="text_20">
     <!-- profile.INS.r2.txt -->
     <g transform="translate(81.57 292.560312)scale(0.1 -0.1)">
      <use xlink:href="#DejaVuSans-70"/>
      <use x="63.476562" xlink:href="#DejaVuSans-72"/>
      <use x="104.558594" xlink:href="#DejaVuSans-6f"/>
      <use x="165.740234" xlink:href="#DejaVuSans-66"/>
      <use x="200.945312" xlink:href="#DejaVuSans-69"/>
      <use x="228.728516" xlink:href="#DejaVuSans-6c"/>
      <use x="256.511719" xlink:href="#DejaVuSans-65"/>
      <use x="318.035156" xlink:href="#DejaVuSans-2e"/>
      <use x="349.822266" xlink:href="#DejaVuSans-49"/>
      <use x="379.314453" xlink:href="#DejaVuSans-4e"/>
      <use x="454.119141" xlink:href="#DejaVuSans-53"/>
      <use x="517.595703" xlink:href="#DejaVuSans-2e"/>
      <use x="549.382812" xlink:href="#DejaVuSans-72"/>
      <use x="590.496094" xlink:href="#DejaVuSans-32"/>
      <use x="654.119141" xlink:href="#DejaVuSans-2e"/>
      <use x="685.90625" xlink:href="#DejaVuSans-74"/>
      <use x="725.115234" xlink:href="#DejaVuSans-78"/>
      <use x="784.294922" xlink:href="#DejaVuSans-74"/>
     </g>
    </g>
   </g>
  </g>
 </g>
 <defs>
  <clipPath id="p879dee4e06">
   <rect height="290.32" width="556.51" x="44.57" y="13.32"/>
  </clipPath>
 </defs>
</svg>
